<svg xmlns="http://www.w3.org/2000/svg" version="1.1" xmlns:xlink="http://www.w3.org/1999/xlink" xmlns:svgjs="http://svgjs.dev/svgjs" width="1440" height="560" preserveAspectRatio="none" viewBox="0 0 1440 560"><g mask="url(&quot;#SvgjsMask1475&quot;)" fill="none"><rect width="1440" height="560" x="0" y="0" fill="url(&quot;#SvgjsLinearGradient1476&quot;)"></rect><path d="M1448.211,385.805C1496.966,385.242,1534.695,347.59,1558.029,304.778C1580.224,264.055,1586.398,215.146,1563.072,175.06C1539.869,135.187,1494.28,113.633,1448.211,116.057C1405.9,118.283,1374.265,149.762,1352.534,186.135C1330.059,223.752,1314.973,267.85,1333.909,307.367C1355.311,352.031,1398.687,386.377,1448.211,385.805" fill="rgba(123, 39, 167, 0.19)" class="triangle-float2"></path><path d="M1179.603,209.906C1213.428,210.902,1247.286,195.059,1263.068,165.125C1278.034,136.74,1267.654,103.096,1250.069,76.254C1234.345,52.253,1208.283,38.582,1179.603,37.723C1149.149,36.811,1117.37,45.838,1101.426,71.801C1084.844,98.803,1088.627,132.874,1104.237,160.449C1120.102,188.475,1147.412,208.958,1179.603,209.906" fill="rgba(123, 39, 167, 0.19)" class="triangle-float1"></path><path d="M54.055,300.177C79.167,299.932,100.428,283.436,112.809,261.587C125.001,240.071,128.182,213.409,115.125,192.407C102.654,172.347,77.675,166.937,54.055,167.078C30.744,167.217,6.731,173.45,-5.768,193.127C-19.106,214.126,-18.852,241.036,-6.716,262.752C5.723,285.01,28.558,300.425,54.055,300.177" fill="rgba(123, 39, 167, 0.19)" class="triangle-float2"></path><path d="M449.848,540.43C472.752,540.462,490.645,523.865,502.992,504.574C516.695,483.164,529.813,457.073,517.392,434.894C504.806,412.421,475.594,408.931,449.848,409.683C425.72,410.388,400.576,417.574,388.811,438.651C377.27,459.326,384.785,484.118,396.963,504.424C408.718,524.026,426.991,540.398,449.848,540.43" fill="rgba(123, 39, 167, 0.19)" class="triangle-float2"></path><path d="M968.361,312.299C990.334,312.728,1014.489,310.993,1026.67,292.7C1039.924,272.796,1039.154,245.727,1025.98,225.77C1013.883,207.444,990.28,203.04,968.361,204.369C949.004,205.543,932.064,215.705,921.695,232.093C910.438,249.884,903.278,272.302,913.866,290.499C924.411,308.623,947.396,311.89,968.361,312.299" fill="rgba(123, 39, 167, 0.19)" class="triangle-float1"></path><path d="M917.356,747.528C965.525,747.592,1003.275,710.168,1026.014,667.704C1047.357,627.848,1050.31,580.415,1027.86,541.172C1005.259,501.665,962.778,480.677,917.356,477.772C865.307,474.443,805.155,479.968,779.316,525.273C753.607,570.35,781.817,623.334,809.196,667.417C834.567,708.266,869.269,747.464,917.356,747.528" fill="rgba(123, 39, 167, 0.19)" class="triangle-float3"></path><path d="M85.302,463.826C108.492,463.863,133.079,456.871,144.187,436.515C154.969,416.756,144.914,394.084,134.148,374.317C122.692,353.284,109.222,329.603,85.302,328.403C60.01,327.134,39.239,346.692,27.162,368.951C15.682,390.108,14.169,415.802,26.746,436.326C38.823,456.033,62.189,463.789,85.302,463.826" fill="rgba(123, 39, 167, 0.19)" class="triangle-float3"></path><path d="M1151.28,615.991C1197.586,616.146,1229.995,576.16,1253.443,536.23C1277.296,495.61,1298.373,446.714,1274.545,406.079C1250.888,365.735,1198.024,360.464,1151.28,362.004C1107.886,363.434,1063.159,376.235,1041.322,413.762C1019.379,451.471,1029.454,497.22,1050.295,535.549C1072.329,576.072,1105.154,615.837,1151.28,615.991" fill="rgba(123, 39, 167, 0.19)" class="triangle-float2"></path></g><defs><mask id="SvgjsMask1475"><rect width="1440" height="560" fill="#ffffff"></rect></mask><linearGradient x1="15.28%" y1="-39.29%" x2="84.72%" y2="139.29%" gradientUnits="userSpaceOnUse" id="SvgjsLinearGradient1476"><stop stop-color="rgba(6, 29, 54, 1)" offset="0"></stop><stop stop-color="rgba(10, 13, 19, 1)" offset="0.39"></stop></linearGradient><style>
                @keyframes float1 {
                    0%{transform: translate(0, 0)}
                    50%{transform: translate(-10px, 0)}
                    100%{transform: translate(0, 0)}
                }

                .triangle-float1 {
                    animation: float1 5s infinite;
                }

                @keyframes float2 {
                    0%{transform: translate(0, 0)}
                    50%{transform: translate(-5px, -5px)}
                    100%{transform: translate(0, 0)}
                }

                .triangle-float2 {
                    animation: float2 4s infinite;
                }

                @keyframes float3 {
                    0%{transform: translate(0, 0)}
                    50%{transform: translate(0, -10px)}
                    100%{transform: translate(0, 0)}
                }

                .triangle-float3 {
                    animation: float3 6s infinite;
                }
            </style></defs></svg>